<svg width="33" height="32" viewBox="0 0 33 32" fill="none" xmlns="http://www.w3.org/2000/svg">
<path fill-rule="evenodd" clip-rule="evenodd" d="M12.7214 0.311765C10.0541 1.24609 8.34692 3.62553 8.34692 6.40942C8.34692 7.02172 8.4145 7.77442 8.49705 8.08223C8.78364 9.15056 9.51855 10.3315 10.4242 11.1793L11.2915 11.9911L10.7636 12.1724C10.4017 12.2965 10.2234 12.4376 10.1971 12.6207C10.1224 13.139 10.4336 13.2074 11.5382 12.9157C13.4709 12.4054 16.8751 12.4506 18.4662 13.0076C19.03 13.205 19.3925 13.1537 19.5059 12.8606C19.6322 12.5339 19.4454 12.2963 18.946 12.1477L18.4613 12.0036L19.4292 11.0586C20.354 10.1557 20.713 9.97238 21.0881 10.2116C21.1924 10.2781 21.2026 10.5115 21.1229 11.0096C20.7331 13.4445 22.1562 15.4187 24.4977 15.6912C25.7915 15.8418 26.805 15.3488 27.3397 14.3086L27.6011 13.8001L27.9282 14.2287C28.2865 14.698 29.1307 16.3546 29.1307 16.588C29.1307 16.9052 29.8394 17.4089 30.6567 17.673C31.9826 18.1011 32.0327 18.1799 32.0327 19.8408C32.0327 21.5551 32.0247 21.5655 30.2345 22.1485C28.8502 22.5993 28.7285 22.6909 27.8191 23.9672C27.1835 24.8593 26.1661 25.7438 25.0275 26.3943C24.6507 26.6095 24.2663 26.9078 24.1735 27.057C24.0806 27.2061 23.8756 28.0481 23.7179 28.9281C23.5603 29.808 23.4009 30.6595 23.3639 30.8203C23.2985 31.104 23.2587 31.1114 21.9896 31.0762L20.6827 31.0399L20.4567 29.8912C20.1326 28.2443 20.1059 28.2263 18.2809 28.4182C17.3809 28.5127 16.2384 28.5385 15.3265 28.4847C13.5277 28.3786 13.4926 28.4018 13.2061 29.8872C13.0992 30.442 12.9622 30.945 12.9019 31.0049C12.8414 31.065 12.2458 31.0974 11.5782 31.077L10.3645 31.0399L9.971 29.12L9.57749 27.2002L8.61674 26.5711C6.84034 25.4079 5.58539 23.8319 4.99042 22.0167C4.60259 20.8338 4.51217 18.1811 4.81359 16.8362C5.26192 14.8367 6.56459 12.9264 8.21936 11.8415C9.03592 11.3062 9.17882 11.1329 9.05875 10.8225C8.90449 10.4237 8.51008 10.4774 7.7286 11.0042C5.74661 12.3398 4.47657 14.1667 3.90895 16.4985L3.67872 17.4439L3.53014 16.8632C3.26109 15.8116 2.54321 15.1068 1.74007 15.1058C1.17747 15.105 0.368781 15.958 0.368781 16.5522C0.368781 17.1382 0.915387 17.6982 1.71698 17.933C2.03955 18.0275 2.30344 18.1447 2.30344 18.1935C2.30344 18.397 1.47876 18.9485 0.975619 19.0814C0.207173 19.2843 0.0518844 19.3823 0.00532362 19.6926C-0.0234383 19.8846 0.0631056 20.0111 0.295135 20.1159C0.967622 20.42 2.36083 19.7506 3.02004 18.8067C3.21273 18.5307 3.42051 18.305 3.48177 18.305C3.54304 18.305 3.5936 18.665 3.59424 19.1049C3.59837 22.496 5.24218 25.5558 8.00062 27.307L8.71567 27.7608L9.00419 29.2724C9.53919 32.0757 9.46541 31.9998 11.6543 31.9998C13.7299 31.9998 13.79 31.9537 14.1638 30.08L14.3042 29.376H16.8359H19.3676L19.5838 30.4514C19.8862 31.955 19.9555 31.9998 21.9795 31.9998C24.1566 31.9998 24.1188 32.0358 24.5857 29.5203L24.9389 27.6166L25.9707 26.9377C27.1069 26.1903 28.2113 25.1368 28.9638 24.0832C29.4422 23.4133 29.4829 23.3884 30.7865 22.973C32.813 22.327 33 22.0623 33 19.8408C33 17.7142 32.8054 17.3948 31.1498 16.8056L30.1483 16.4491L29.7299 15.4856C29.3461 14.6019 28.9304 13.9317 28.212 13.0387C27.9507 12.714 27.9458 12.6475 28.0897 11.4185C28.4138 8.65217 27.8786 7.51281 26.3609 7.73871C25.6281 7.84776 23.921 8.42013 22.7473 8.95039C22.0237 9.27727 21.7475 9.34139 21.3492 9.27458C20.9157 9.20188 20.8636 9.1567 20.9375 8.9166C21.281 7.80079 21.401 7.21127 21.3669 6.80631C21.3312 6.38049 21.2926 6.338 20.9423 6.338C20.5667 6.338 20.5529 6.36065 20.3945 7.23392C20.0847 8.94232 19.1006 10.4033 17.7179 11.2073C17.1015 11.5658 17.0605 11.5715 14.9536 11.5836C13.0025 11.5949 12.7643 11.5715 12.2347 11.3161C9.24486 9.87434 8.34021 5.71175 10.4431 3.07185C12.8407 0.0618026 17.337 0.230621 19.5341 3.41307C20.0685 4.18689 20.4081 4.347 20.6636 3.94512C20.8674 3.62463 20.5208 2.99813 19.5993 2.02042C18.7609 1.13102 17.6774 0.472391 16.5724 0.180448C15.4926 -0.104839 13.7404 -0.0450681 12.7214 0.311765ZM14.8142 3.24604C14.8142 3.3405 14.5852 3.48576 14.3053 3.56909C13.6024 3.77809 13.2665 4.23885 13.2665 4.99412C13.2665 5.73402 13.5686 6.16125 14.2959 6.45012L14.8142 6.65593V7.61687C14.8142 8.72013 14.6783 8.81932 13.9235 8.2668C13.4832 7.94439 13.2108 7.94772 13.0835 8.27703C12.9144 8.71412 13.4934 9.21187 14.395 9.40449C14.6289 9.4544 14.8142 9.57446 14.8142 9.67583C14.8142 9.77591 14.9303 9.8577 15.0722 9.8577C15.2141 9.8577 15.3301 9.77399 15.3301 9.67173C15.3301 9.56947 15.581 9.37556 15.8876 9.24105C17.2213 8.6555 17.1999 6.8314 15.8511 6.14858L15.3301 5.88479V5.05555C15.3301 4.5994 15.3795 4.22618 15.4399 4.22618C15.5003 4.22618 15.7374 4.2912 15.9669 4.37055C16.3031 4.4869 16.4205 4.47883 16.5713 4.32921C16.6742 4.22721 16.7226 4.05109 16.6788 3.93782C16.5959 3.7237 15.9817 3.45825 15.5689 3.45825C15.4376 3.45825 15.3301 3.37185 15.3301 3.26626C15.3301 3.15965 15.2155 3.07428 15.0722 3.07428C14.9303 3.07428 14.8142 3.15159 14.8142 3.24604ZM14.8142 4.93012C14.8142 5.70983 14.604 5.86367 14.2412 5.34954C13.9757 4.97364 13.9879 4.79023 14.2983 4.48216C14.7046 4.07899 14.8142 4.17409 14.8142 4.93012ZM15.7391 7.12577C16.0331 7.38969 16.0449 8.03309 15.7616 8.34372C15.4098 8.72948 15.3301 8.61902 15.3301 7.74588C15.3301 7.28832 15.3691 6.91395 15.4167 6.91395C15.4643 6.91395 15.6094 7.0093 15.7391 7.12577ZM27.1148 8.99377C27.2561 9.5175 27.1946 11.3154 27.0048 12.2044C26.7398 13.4454 26.2567 14.4368 25.8402 14.5939C25.3103 14.7939 24.2151 14.7382 23.648 14.4826C22.974 14.1787 22.3434 13.455 22.157 12.7711C21.9433 11.9872 22.0689 10.5334 22.3752 10.2467C22.5084 10.1221 23.0817 9.83044 23.6492 9.59839C25.971 8.64948 26.9744 8.47439 27.1148 8.99377ZM2.29841 16.4093C2.44299 16.5633 2.56139 16.8 2.56139 16.9351C2.56139 17.1389 2.50077 17.166 2.20671 17.0943C2.01156 17.0467 1.72046 16.9233 1.55963 16.82C1.32076 16.6667 1.29213 16.5863 1.40292 16.3808C1.58194 16.049 1.97184 16.0615 2.29841 16.4093ZM24.7713 17.0507C24.5534 17.2669 24.5788 17.9387 24.8178 18.2772C25.4857 19.2236 27.0275 19.1218 27.5164 18.0993C27.7879 17.5314 27.7607 17.188 27.4304 17.0125C27.1906 16.8852 27.114 16.9057 26.9145 17.1503C26.7856 17.3082 26.6801 17.5186 26.6801 17.6179C26.6801 17.7173 26.5353 17.8641 26.3582 17.944C26.0922 18.0644 25.9914 18.0493 25.7778 17.8575C25.6357 17.7298 25.5193 17.5306 25.5193 17.4148C25.5193 17.1742 25.2778 16.8971 25.0679 16.8971C24.9899 16.8971 24.8564 16.9662 24.7713 17.0507Z" fill="white"/>
</svg>
