<svg width="17" height="21" viewBox="0 0 17 21" fill="none" xmlns="http://www.w3.org/2000/svg">
<path fill-rule="evenodd" clip-rule="evenodd" d="M3.51755 19.4438C0.289071 17.5799 -0.817086 13.4517 1.04687 10.2232L5.04687 3.29497C6.35855 1.02308 9.26361 0.244675 11.5355 1.55635C13.8074 2.86803 14.5858 5.77308 13.2741 8.04497L9.20269 15.0969C8.4433 16.4122 6.76142 16.8629 5.44612 16.1035C4.13081 15.3441 3.68016 13.6622 4.43955 12.3469L8.36812 5.54241C8.57523 5.18369 9.03392 5.06078 9.39264 5.26789C9.75136 5.475 9.87426 5.93369 9.66716 6.29241L5.73859 13.0969C5.39341 13.6948 5.59825 14.4592 6.19612 14.8044C6.79398 15.1496 7.55847 14.9448 7.90365 14.3469L11.9751 7.29497C12.8725 5.74052 12.3399 3.75285 10.7855 2.85539C9.23104 1.95793 7.24338 2.49052 6.34591 4.04497L2.34591 10.9732C0.896165 13.4842 1.75651 16.6951 4.26755 18.1448C6.77858 19.5946 9.98943 18.7342 11.4392 16.2232L15.2963 9.54241C15.5034 9.18369 15.9621 9.06078 16.3208 9.26789C16.6796 9.475 16.8025 9.93369 16.5954 10.2924L12.7382 16.9732C10.8743 20.2016 6.74602 21.3078 3.51755 19.4438Z" fill="white"/>
</svg>
