<svg width="32" height="32" viewBox="0 0 32 32" fill="none" xmlns="http://www.w3.org/2000/svg">
<path fill-rule="evenodd" clip-rule="evenodd" d="M0.169016 0.15C0.0859133 0.2325 0.0179203 0.389375 0.0179203 0.4985C0.0179203 0.748875 4.18667 4.875 4.43963 4.875C4.68315 4.875 4.92855 4.6265 4.92855 4.37988C4.92855 4.127 0.76887 0 0.513895 0C0.407372 0 0.252119 0.0675001 0.169016 0.15ZM6.44078 0.186C6.31574 0.3355 6.34017 0.574875 6.56493 1.40475C6.90628 2.66562 7.01243 2.875 7.30996 2.875C7.81437 2.875 7.87141 2.571 7.57325 1.47025C7.4195 0.90225 7.24109 0.339 7.17687 0.21875C7.03421 -0.048875 6.6513 -0.0658751 6.44078 0.186ZM24.8411 0.21875C24.7768 0.339 24.5984 0.90225 24.4447 1.47025C24.1465 2.571 24.2035 2.875 24.708 2.875C25.0055 2.875 25.1116 2.66562 25.453 1.40475C25.6777 0.574875 25.7022 0.3355 25.5771 0.186C25.3666 -0.0658751 24.9837 -0.048875 24.8411 0.21875ZM29.197 2.09513C28.0379 3.24738 27.0894 4.27675 27.0894 4.38262C27.0894 4.62675 27.3358 4.875 27.5783 4.875C27.8312 4.875 32 0.748875 32 0.4985C32 0.24525 31.7547 0 31.5013 0C31.3931 0 30.3562 0.94275 29.197 2.09513ZM15.0287 3.15713C14.8012 3.2295 14.3762 3.49625 14.0844 3.75C13.1588 4.55463 13.0028 4.59312 11.3251 4.43237C10.4232 4.34587 10.3065 4.36338 9.64755 4.68338C8.8354 5.07788 8.32092 5.6955 8.07337 6.57325C7.86146 7.32475 7.2703 7.91162 6.5133 8.122C5.62914 8.36775 5.007 8.8785 4.60962 9.68475C4.28728 10.3389 4.26965 10.4547 4.35678 11.3501C4.51871 13.0146 4.47955 13.1707 3.67206 14.0864C2.6645 15.2289 2.6645 16.7711 3.67206 17.9136C4.47955 18.8293 4.51871 18.9854 4.35678 20.6499C4.26965 21.5452 4.28728 21.6611 4.60962 22.3153C5.007 23.1215 5.62914 23.6322 6.5133 23.878C7.2703 24.0884 7.86146 24.6753 8.07337 25.4268C8.32092 26.3045 8.8354 26.9221 9.64755 27.3166C10.3065 27.6366 10.4232 27.6541 11.3251 27.5676C13.0018 27.4069 13.159 27.4458 14.0813 28.2474C15.2322 29.2476 16.7857 29.2476 17.9366 28.2474C18.8589 27.4458 19.0162 27.4069 20.6928 27.5676C21.5947 27.6541 21.7115 27.6366 22.3704 27.3166C23.1825 26.9221 23.697 26.3045 23.9445 25.4268C24.1565 24.6753 24.7476 24.0884 25.5046 23.878C26.3888 23.6322 27.0109 23.1215 27.4083 22.3153C27.7306 21.6611 27.7483 21.5452 27.6611 20.6499C27.4992 18.9854 27.5384 18.8293 28.3459 17.9136C29.3534 16.7711 29.3534 15.2289 28.3459 14.0864C27.5384 13.1707 27.4992 13.0146 27.6611 11.3501C27.7483 10.4547 27.7306 10.3389 27.4083 9.68475C27.0109 8.8785 26.3888 8.36775 25.5046 8.122C24.7476 7.91162 24.1565 7.32475 23.9445 6.57325C23.697 5.6955 23.1825 5.07788 22.3704 4.68338C21.7115 4.36338 21.5947 4.34587 20.6928 4.43237C19.0162 4.59312 18.8589 4.55425 17.9366 3.75263C17.128 3.04988 16.0561 2.83025 15.0287 3.15713ZM16.9152 4.1435C17.0328 4.203 17.3873 4.47387 17.7034 4.74537C18.5449 5.46837 19.4276 5.65625 20.603 5.36238C21.6867 5.0915 22.6596 5.69037 23.0227 6.8515C23.3282 7.8285 24.2341 8.732 25.2096 9.0325C25.9956 9.27475 26.352 9.58838 26.6524 10.3022C26.8287 10.7211 26.8358 10.8951 26.7033 11.5567C26.4405 12.8692 26.6003 13.4032 27.6371 14.6777C28.3083 15.5029 28.3083 16.4971 27.6371 17.3223C26.6003 18.5968 26.4405 19.1308 26.7033 20.4433C26.8358 21.1049 26.8287 21.2789 26.6524 21.6978C26.352 22.4116 25.9956 22.7253 25.2096 22.9675C24.2341 23.268 23.3282 24.1715 23.0227 25.1485C22.6596 26.3096 21.6867 26.9085 20.603 26.6376C19.4276 26.3438 18.5449 26.5316 17.7034 27.2546C16.9222 27.9257 16.6967 28.0289 16.009 28.0289C15.3317 28.0289 15.0451 27.9013 14.3774 27.3024C13.5618 26.571 12.571 26.3486 11.4149 26.6376C10.3313 26.9085 9.35832 26.3096 8.99519 25.1485C8.68972 24.1715 7.78377 23.268 6.80832 22.9675C6.02237 22.7253 5.6659 22.4116 5.36548 21.6978C5.1892 21.2789 5.18214 21.1049 5.31461 20.4433C5.57739 19.1308 5.4176 18.5968 4.38083 17.3223C3.70958 16.4971 3.70958 15.5029 4.38083 14.6777C5.4176 13.4032 5.57739 12.8692 5.31461 11.5567C5.18214 10.8951 5.1892 10.7211 5.36548 10.3022C5.6659 9.58838 6.02237 9.27475 6.80832 9.0325C7.77697 8.73413 8.68997 7.82775 8.99053 6.86613C9.23455 6.08588 9.55047 5.732 10.2696 5.43375C10.6915 5.25875 10.8668 5.25175 11.5332 5.38325C12.8567 5.64438 13.392 5.48612 14.6818 4.45263C15.3472 3.9195 16.2316 3.79713 16.9152 4.1435ZM13.1129 6.17113C9.65586 7.20588 7.03887 9.85425 6.03672 13.3324C5.8068 14.1302 5.7543 14.6263 5.7543 16C5.7543 18.017 6.00134 19.0433 6.91094 20.804C7.39634 21.7435 7.71326 22.1516 8.76225 23.1881C9.78782 24.2013 10.2432 24.5497 11.1613 25.0238C12.913 25.9281 13.9698 26.1803 16.009 26.1803C18.0407 26.1803 19.0745 25.935 20.8481 25.032C21.7907 24.552 22.2107 24.2315 23.2557 23.1941C24.3006 22.1567 24.6235 21.7397 25.107 20.804C26.0166 19.0433 26.2636 18.017 26.2636 16C26.2636 14.6263 26.2111 14.1302 25.9812 13.3324C24.9668 9.812 22.2336 7.08375 18.7655 6.12963C17.5267 5.78888 16.8088 5.78937 16.6996 6.131C16.5799 6.50525 16.8212 6.71163 17.4925 6.80888C20.8174 7.29063 23.7762 9.78862 24.8997 13.0625C25.3826 14.4695 25.4715 16.7516 25.1002 18.2091C24.2485 21.5525 21.6539 24.1581 18.338 25.0001C17.1364 25.3053 15.0576 25.333 13.8896 25.0597C10.7765 24.3311 8.19048 21.9959 7.11014 18.9375C6.78163 18.0075 6.75695 17.802 6.75695 16C6.75695 14.2001 6.782 13.9915 7.10913 13.0625C8.09314 10.2688 10.2751 8.09412 12.987 7.20475C13.5064 7.03438 14.1987 6.85625 14.5254 6.80888C15.1967 6.71163 15.4381 6.50525 15.3183 6.131C15.2065 5.78125 14.364 5.79663 13.1129 6.17113ZM0.169016 6.4C-0.238063 6.80412 0.0686637 7.05237 1.43583 7.42587C2.55609 7.73175 2.91394 7.6915 2.91394 7.25912C2.91394 6.924 2.6985 6.7955 1.65455 6.50838C0.567282 6.20925 0.375263 6.19525 0.169016 6.4ZM30.3002 6.5205C29.3038 6.80988 29.104 6.93325 29.104 7.25912C29.104 7.69262 29.462 7.73175 30.5951 7.42225C31.8043 7.092 32.1364 6.8685 31.9222 6.52888C31.7313 6.22613 31.3209 6.224 30.3002 6.5205ZM19.7864 10.7631C19.6132 10.8304 18.353 11.993 16.9858 13.3468L14.5 15.8083L13.5861 14.9181C12.5855 13.9434 12.2886 13.75 11.7929 13.75C11.2942 13.75 10.8612 14.0275 10.0034 14.8969C9.13936 15.7725 8.90667 16.2282 9.02982 16.803C9.13017 17.2715 12.6719 20.8911 13.3912 21.2603C13.9413 21.5425 14.7216 21.5696 15.289 21.3261C15.5119 21.2305 16.0538 20.7875 16.4933 20.3417C17.3103 19.5132 17.4144 19.2201 16.9867 18.9527C16.8039 18.8384 16.6394 18.9423 15.9794 19.5888C15.1298 20.4209 14.6301 20.6833 14.1252 20.5623C13.7385 20.4696 9.9651 16.7765 9.9651 16.4907C9.9651 16.3015 11.6056 14.625 11.7909 14.625C11.8389 14.625 12.4339 15.1594 13.1129 15.8125C13.792 16.4656 14.4209 17 14.5106 17C14.6004 17 15.8966 15.7906 17.3911 14.3125C19.0606 12.6614 20.2028 11.625 20.353 11.625C20.681 11.625 22.0528 12.9849 22.0528 13.31C22.0528 13.4736 21.3063 14.3055 19.9752 15.625C18.8326 16.7577 17.8977 17.7817 17.8977 17.9004C17.8977 18.0191 18.0164 18.1792 18.1616 18.2564C18.4008 18.3835 18.6261 18.1996 20.5682 16.2921C21.7466 15.1345 22.7887 14.0081 22.8838 13.789C23.1702 13.13 22.9877 12.6874 22.0362 11.7334C20.9562 10.6505 20.5392 10.4706 19.7864 10.7631ZM1.42375 24.5739C0.0364297 24.9548 -0.274073 25.2289 0.220641 25.6364C0.391254 25.777 0.592717 25.7599 1.4969 25.5278C2.66626 25.2278 2.91394 25.0899 2.91394 24.7391C2.91394 24.3119 2.53242 24.2696 1.42375 24.5739ZM29.3104 24.3978C29.0651 24.534 29.0395 24.9163 29.2631 25.1005C29.3506 25.1726 29.9112 25.3603 30.5087 25.5174C31.4238 25.758 31.6269 25.7767 31.7975 25.6362C32.0467 25.4309 32.0564 25.202 31.8237 25.0104C31.5118 24.7534 29.5367 24.272 29.3104 24.3978ZM2.13541 29.214C0.970709 30.3629 0.0179203 31.3923 0.0179203 31.5015C0.0179203 31.7547 0.2632 32 0.516664 32C0.771388 32 4.92855 27.8705 4.92855 27.6174C4.92855 27.3732 4.68214 27.125 4.43963 27.125C4.33689 27.125 3.29999 28.065 2.13541 29.214ZM27.2405 27.275C27.1574 27.3575 27.0894 27.5128 27.0894 27.6201C27.0894 27.873 31.2491 32 31.504 32C31.755 32 32 31.7537 32 31.5015C32 31.2511 27.8312 27.125 27.5783 27.125C27.4757 27.125 27.3236 27.1925 27.2405 27.275ZM6.9613 29.3438C6.89709 29.464 6.71867 30.0272 6.56493 30.5952C6.26677 31.696 6.3238 32 6.82822 32C7.12575 32 7.23189 31.7906 7.57325 30.5298C7.798 29.6999 7.82243 29.4605 7.6974 29.311C7.48687 29.0591 7.10396 29.0761 6.9613 29.3438ZM24.3205 29.311C24.1955 29.4605 24.2199 29.6999 24.4447 30.5298C24.786 31.7906 24.8922 32 25.1897 32C25.6941 32 25.7512 31.696 25.453 30.5952C25.2992 30.0272 25.1208 29.464 25.0566 29.3438C24.914 29.0761 24.5311 29.0591 24.3205 29.311Z" fill="white"/>
</svg>
