<svg width="38" height="36" viewBox="0 0 38 36" fill="none" xmlns="http://www.w3.org/2000/svg">
<path fill-rule="evenodd" clip-rule="evenodd" d="M19.3844 0.207235C17.4568 1.05513 17.3108 3.67146 19.1354 4.66345L19.7692 5.00803L19.7254 5.88433L19.6816 6.76078L18.3942 7.16818C15.9983 7.92631 14.0228 9.16945 12.126 11.1126L11.109 12.1544H8.32253C5.81174 12.1544 5.51171 12.1809 5.29015 12.4222C4.98135 12.7584 4.97704 13.0923 5.27766 13.3887C5.46981 13.5779 5.91695 13.6188 7.7944 13.6188H10.0774L9.49263 14.8485C9.17105 15.5249 8.90788 16.1509 8.90788 16.2396C8.90788 16.3536 7.68458 16.4012 4.7635 16.4012C0.916775 16.4012 0.594011 16.4211 0.271246 16.6787C-0.0280396 16.9175 -0.0558283 17.0146 0.0725643 17.3743L0.221613 17.7924L4.26761 17.8313C7.35557 17.861 8.31347 17.913 8.31361 18.051C8.31376 18.1504 8.23679 18.7754 8.14257 19.4398L7.97123 20.648L6.3962 20.6502C4.5403 20.6527 4.07829 20.8129 4.07829 21.4534C4.07829 22.0957 4.53926 22.2541 6.41596 22.2566C8.20127 22.2591 8.04152 22.149 8.22579 23.5036C8.26963 23.8258 8.34883 24.302 8.40174 24.5618L8.49788 25.0343L5.84562 25.0743L3.19351 25.1144L3.04447 25.5325C2.91622 25.8922 2.94401 25.9893 3.2433 26.2281C3.5564 26.478 3.86252 26.5056 6.30659 26.5056H9.022L9.34224 27.2834C9.82624 28.4584 10.9766 30.1402 12.0972 31.3107C15.8304 35.2106 21.4245 36.8552 26.5837 35.5695C28.0592 35.2018 29.9929 34.4196 30.8267 33.8535C31.5598 33.3554 31.6934 32.7908 31.1596 32.446C30.8229 32.2287 30.7296 32.2558 29.2256 33.009C26.7308 34.258 24.0072 34.7551 21.477 34.4234C14.7671 33.5435 9.93175 28.4624 9.55222 21.8927C9.21846 16.1159 12.8962 10.6731 18.4569 8.71461C23.3286 6.99875 28.6363 8.10848 32.3596 11.6213C33.5664 12.7599 34.4425 13.9651 35.2031 15.5331C36.1782 17.5428 36.4421 18.7574 36.4421 21.2337C36.4421 23.8076 36.1723 24.9736 35.0639 27.1897C34.6542 28.0087 34.3189 28.8029 34.3189 28.9543C34.3189 29.654 35.1662 29.7956 35.659 29.1782C36.2354 28.4561 37.1612 26.3519 37.5359 24.9123C38.427 21.488 38.0215 17.6803 36.4347 14.5707C34.694 11.1596 31.3449 8.33547 27.656 7.16818L26.3687 6.76078L26.3248 5.88755L26.2811 5.01418L26.9421 4.6324C27.9938 4.02511 28.4815 2.73643 28.0685 1.65671C27.8339 1.04356 27.047 0.309158 26.4495 0.145583C25.6243 -0.0803759 19.9251 -0.0305856 19.3844 0.207235ZM26.3754 1.82366C26.821 2.26269 26.8366 2.62176 26.4321 3.12845L26.1242 3.51432H23.0611C20.1205 3.51432 19.9841 3.50158 19.6539 3.19596C19.1845 2.76132 19.2048 2.15271 19.7016 1.76772C20.0679 1.48362 20.2835 1.46414 23.0519 1.46414C25.9952 1.46414 26.0126 1.46605 26.3754 1.82366ZM24.8083 5.74756V6.51637H23.0251H21.2419V5.74756V4.97874H23.0251H24.8083V5.74756ZM21.4513 9.96492C16.8403 10.5582 12.8837 14.1378 11.7868 18.7089C11.465 20.0496 11.4735 22.4863 11.8046 23.7965C13.1227 29.0137 17.6248 32.5097 23.0251 32.5097C28.4255 32.5097 32.9275 29.0137 34.2456 23.7965C34.5767 22.4863 34.5852 20.0496 34.2635 18.7089C33.1506 14.0716 29.2294 10.5669 24.4721 9.95804C23.2413 9.80047 22.72 9.80164 21.4513 9.96492ZM25.8242 11.7382C28.4916 12.5426 30.7747 14.4011 31.9151 16.6958C32.7415 18.3589 32.9955 19.3991 33.0048 21.1605C33.0256 25.0399 30.9104 28.4152 27.4067 30.0939C26.0098 30.7631 24.7244 31.0409 23.0251 31.0409C21.3086 31.0409 20.0244 30.7603 18.6228 30.0788C15.9588 28.7837 14.0519 26.4528 13.2832 23.5521C12.9704 22.3717 12.9716 20.0055 13.2854 18.8175C14.2961 14.9921 17.6178 12.0328 21.5966 11.4134C22.6998 11.2417 24.6832 11.394 25.8242 11.7382ZM22.6124 12.8217C21.951 13.2782 22.268 14.7903 23.0251 14.7903C23.7822 14.7903 24.0992 13.2782 23.4378 12.8217C23.2562 12.6964 23.0704 12.5937 23.0251 12.5937C22.9798 12.5937 22.794 12.6964 22.6124 12.8217ZM25.9398 17.2631C24.0389 19.1405 24.0265 19.1494 23.5271 19.0135C23.2161 18.9289 22.8334 18.929 22.5209 19.0141C22.0381 19.1455 21.983 19.1174 21.2206 18.3512C20.2244 17.35 20.0275 17.241 19.5426 17.4226C18.8745 17.673 19.0307 18.2399 20.047 19.2528C20.9114 20.1143 20.9294 20.1488 20.804 20.6918C20.4748 22.1171 21.54 23.4304 23.0251 23.4304C24.5107 23.4304 25.5763 22.1162 25.2455 20.6918L25.1164 20.1354L27.0429 18.2298C28.9405 16.3524 29.2 15.955 28.7909 15.5518C28.3164 15.0842 27.882 15.3449 25.9398 17.2631ZM23.4378 20.5831C23.8017 20.8342 23.8854 21.4989 23.5898 21.7902C23.4917 21.8869 23.2376 21.9659 23.0251 21.9659C22.5279 21.9659 22.2821 21.7167 22.2821 21.2128C22.2821 20.8649 22.7237 20.3551 23.0251 20.3551C23.0704 20.3551 23.2562 20.4577 23.4378 20.5831ZM14.5845 20.6773C14.302 20.9556 14.3678 21.6426 14.6936 21.8144C15.123 22.0408 15.9877 21.9973 16.2532 21.7359C16.5303 21.4628 16.5584 20.9237 16.3083 20.6773C16.2102 20.5806 15.8224 20.5015 15.4464 20.5015C15.0704 20.5015 14.6826 20.5806 14.5845 20.6773ZM29.8237 20.6597C29.5003 20.8452 29.4859 21.4292 29.7971 21.7359C30.0625 21.9973 30.9272 22.0408 31.3567 21.8144C31.6824 21.6426 31.7482 20.9556 31.4657 20.6773C31.2497 20.4643 30.184 20.4529 29.8237 20.6597ZM0.145528 25.3244C-0.0972885 25.7717 -0.0371044 26.0408 0.363231 26.2994C0.707394 26.5216 0.76208 26.5216 1.10624 26.2994C1.73825 25.8915 1.48711 25.0412 0.734737 25.0412C0.456405 25.0412 0.243903 25.1434 0.145528 25.3244ZM22.4604 27.8529C22.3623 27.9495 22.2821 28.3318 22.2821 28.7023C22.2821 29.4768 22.4698 29.7273 23.0496 29.7273C23.5256 29.7273 23.7681 29.3813 23.7681 28.7023C23.7681 28.0232 23.5256 27.6772 23.0496 27.6772C22.8236 27.6772 22.5585 27.7562 22.4604 27.8529ZM32.5654 30.6353C32.2924 30.9043 32.3527 31.4086 32.6944 31.7134C32.9751 31.9637 33.0365 31.9683 33.4002 31.7677C33.8732 31.5071 33.9837 31.0288 33.6475 30.6975C33.3634 30.4175 32.8182 30.3862 32.5654 30.6353Z" fill="white"/>
</svg>
